# xmcd
#
# Track frame offsets: 
#        150
#        12945
#        25582
#        42865
#        58877
#        70402
#        81447
#        96352
#        120632
#        139352
#        158305
#        176962
#        192662
#        208692
#        225667
#        239742
#        257022
#        274592
#        293622
#        313672
#
# Disc length: 4419 seconds
#
# Revision: 2
# Processed by: cddbd v1.5.1PL0 Copyright (c) Steve Scherf et al.
# Submitted via: ExactAudioCopy v0.95a4
#
DISCID=28114114
DTITLE=Various Artist - The Greatest Country Love Songs Of All Time
DYEAR=1997
DGENRE=Country
TTITLE0=Patsy Cline - I Fall To Pieces
TTITLE1=Roy Orbison - Crying
TTITLE2=Ray Price - For The Good Times
TTITLE3=Willie Nelson - Always On My Mind
TTITLE4=Sammi Smith - Help Me Make It Through The Night
TTITLE5=Conway Twitty - Hello Darlin'
TTITLE6=George Jones - He Stopped Lovin' Her Today
TTITLE7=Judds, The - Love Can Build A Bridge
TTITLE8=Tanya Tucker - Two Sparrows In A Hurricane
TTITLE9=Patty Loveless - Don't Toss Us Away
TTITLE10=Tracy Byrd - Keeper Of The Stars
TTITLE11=Reba McEntire - And Still
TTITLE12=Randy Travis - Forever And Ever, Amen
TTITLE13=Kathy Mattea - Where've You've Been
TTITLE14=George Strait - Love Without End , Amen
TTITLE15=John Berry - Your Love Amazes Me
TTITLE16=Alisson Kraus - Baby, Now That I Found You
TTITLE17=Mark Chesnutt - I'll Think Of Something
TTITLE18=Wynonna Judd - She Is His Only Need
TTITLE19=Vince Gill - I Still Believe In You
EXTD=
EXTT0=
EXTT1=
EXTT2=
EXTT3=
EXTT4=
EXTT5=
EXTT6=
EXTT7=
EXTT8=
EXTT9=
EXTT10=
EXTT11=
EXTT12=
EXTT13=
EXTT14=
EXTT15=
EXTT16=
EXTT17=
EXTT18=
EXTT19=
PLAYORDER=
